<?xml version="1.0" standalone="no"?>
<!DOCTYPE svg PUBLIC "-//W3C//DTD SVG 20010904//EN"
 "http://www.w3.org/TR/2001/REC-SVG-20010904/DTD/svg10.dtd">
<svg version="1.0" xmlns="http://www.w3.org/2000/svg"
 width="1011.000000pt" height="1011.000000pt" viewBox="0 0 1011.000000 1011.000000"
 preserveAspectRatio="xMidYMid meet">
<metadata>
Created by potrace 1.11, written by Peter Selinger 2001-2013
</metadata>
<g transform="translate(0.000000,1011.000000) scale(0.100000,-0.100000)"
fill="#000000" stroke="none">
<path d="M1987 10104 c-1 -1 -42 -5 -91 -8 -120 -9 -155 -14 -265 -38 -469
-100 -900 -369 -1189 -743 -35 -44 -66 -85 -70 -90 -46 -59 -220 -375 -206
-375 4 0 2 -6 -4 -12 -27 -34 -115 -336 -128 -440 -3 -24 -7 -49 -10 -56 -2
-7 -7 -50 -11 -95 -10 -107 -10 -6324 0 -6401 14 -107 18 -130 42 -241 112
-514 429 -970 880 -1268 172 -113 472 -242 646 -278 30 -6 73 -15 97 -20 24
-5 64 -11 90 -14 26 -4 58 -9 72 -12 37 -9 6347 -11 6395 -2 22 4 65 9 95 13
316 33 687 188 975 408 74 57 268 244 325 313 123 149 232 329 318 525 33 77
81 230 106 345 25 111 29 141 42 270 8 86 9 6231 0 6331 -22 267 -88 501 -211
749 -106 215 -216 367 -395 545 -340 339 -788 545 -1271 586 -60 5 -6226 13
-6232 8z"/>
</g>
</svg>
